<mxfile host="app.diagrams.net" agent="Mozilla/5.0 (Windows NT 10.0; Win64; x64) AppleWebKit/537.36 (KHTML, like Gecko) Chrome/133.0.0.0 Safari/537.36" version="26.0.16">
  <diagram name="Página-1" id="yWvEygiS8XRzVesNrtjZ">
    <mxGraphModel dx="2117" dy="1726" grid="1" gridSize="10" guides="1" tooltips="1" connect="1" arrows="1" fold="1" page="1" pageScale="1" pageWidth="827" pageHeight="1169" math="0" shadow="0">
      <root>
        <mxCell id="0" />
        <mxCell id="1" parent="0" />
        <mxCell id="Y_XkogyEwF-Upu59ZAgG-22" style="edgeStyle=orthogonalEdgeStyle;rounded=0;orthogonalLoop=1;jettySize=auto;html=1;" edge="1" parent="1" source="Y_XkogyEwF-Upu59ZAgG-1" target="Y_XkogyEwF-Upu59ZAgG-13">
          <mxGeometry relative="1" as="geometry" />
        </mxCell>
        <mxCell id="Y_XkogyEwF-Upu59ZAgG-24" style="edgeStyle=orthogonalEdgeStyle;rounded=0;orthogonalLoop=1;jettySize=auto;html=1;entryX=1;entryY=0.8;entryDx=0;entryDy=0;entryPerimeter=0;" edge="1" parent="1" target="Y_XkogyEwF-Upu59ZAgG-11">
          <mxGeometry relative="1" as="geometry">
            <mxPoint x="120" y="215" as="targetPoint" />
            <mxPoint x="150" y="130" as="sourcePoint" />
          </mxGeometry>
        </mxCell>
        <mxCell id="Y_XkogyEwF-Upu59ZAgG-27" style="edgeStyle=orthogonalEdgeStyle;rounded=0;orthogonalLoop=1;jettySize=auto;html=1;exitX=0;exitY=0;exitDx=0;exitDy=0;" edge="1" parent="1" source="Y_XkogyEwF-Upu59ZAgG-1" target="Y_XkogyEwF-Upu59ZAgG-9">
          <mxGeometry relative="1" as="geometry">
            <Array as="points">
              <mxPoint x="110" y="80" />
              <mxPoint x="110" y="70" />
            </Array>
          </mxGeometry>
        </mxCell>
        <mxCell id="Y_XkogyEwF-Upu59ZAgG-1" value="&lt;font style=&quot;vertical-align: inherit;&quot;&gt;&lt;font style=&quot;vertical-align: inherit;&quot;&gt;Cliente&lt;/font&gt;&lt;/font&gt;" style="rounded=1;whiteSpace=wrap;html=1;" vertex="1" parent="1">
          <mxGeometry x="140" y="80" width="120" height="50" as="geometry" />
        </mxCell>
        <mxCell id="Y_XkogyEwF-Upu59ZAgG-33" style="edgeStyle=orthogonalEdgeStyle;rounded=0;orthogonalLoop=1;jettySize=auto;html=1;entryX=0.7;entryY=0.96;entryDx=0;entryDy=0;entryPerimeter=0;" edge="1" parent="1" source="Y_XkogyEwF-Upu59ZAgG-2" target="Y_XkogyEwF-Upu59ZAgG-29">
          <mxGeometry relative="1" as="geometry">
            <mxPoint x="380" y="80" as="targetPoint" />
          </mxGeometry>
        </mxCell>
        <mxCell id="Y_XkogyEwF-Upu59ZAgG-35" style="edgeStyle=orthogonalEdgeStyle;rounded=0;orthogonalLoop=1;jettySize=auto;html=1;exitX=0.5;exitY=0;exitDx=0;exitDy=0;entryX=0.5;entryY=1;entryDx=0;entryDy=0;" edge="1" parent="1" source="Y_XkogyEwF-Upu59ZAgG-2" target="Y_XkogyEwF-Upu59ZAgG-32">
          <mxGeometry relative="1" as="geometry" />
        </mxCell>
        <mxCell id="Y_XkogyEwF-Upu59ZAgG-36" style="edgeStyle=orthogonalEdgeStyle;rounded=0;orthogonalLoop=1;jettySize=auto;html=1;exitX=1;exitY=0.25;exitDx=0;exitDy=0;" edge="1" parent="1" source="Y_XkogyEwF-Upu59ZAgG-2" target="Y_XkogyEwF-Upu59ZAgG-30">
          <mxGeometry relative="1" as="geometry" />
        </mxCell>
        <mxCell id="Y_XkogyEwF-Upu59ZAgG-96" style="edgeStyle=orthogonalEdgeStyle;rounded=0;orthogonalLoop=1;jettySize=auto;html=1;entryX=0.5;entryY=0;entryDx=0;entryDy=0;" edge="1" parent="1" source="Y_XkogyEwF-Upu59ZAgG-2" target="Y_XkogyEwF-Upu59ZAgG-95">
          <mxGeometry relative="1" as="geometry" />
        </mxCell>
        <mxCell id="Y_XkogyEwF-Upu59ZAgG-2" value="&lt;font style=&quot;vertical-align: inherit;&quot;&gt;&lt;font style=&quot;vertical-align: inherit;&quot;&gt;Auto&lt;/font&gt;&lt;/font&gt;" style="rounded=1;whiteSpace=wrap;html=1;" vertex="1" parent="1">
          <mxGeometry x="430" y="90" width="120" height="60" as="geometry" />
        </mxCell>
        <mxCell id="Y_XkogyEwF-Upu59ZAgG-102" style="edgeStyle=orthogonalEdgeStyle;rounded=0;orthogonalLoop=1;jettySize=auto;html=1;exitX=0.25;exitY=1;exitDx=0;exitDy=0;entryX=0.5;entryY=1;entryDx=0;entryDy=0;" edge="1" parent="1" source="Y_XkogyEwF-Upu59ZAgG-3" target="Y_XkogyEwF-Upu59ZAgG-101">
          <mxGeometry relative="1" as="geometry" />
        </mxCell>
        <mxCell id="Y_XkogyEwF-Upu59ZAgG-3" value="&lt;font style=&quot;vertical-align: inherit;&quot;&gt;&lt;font style=&quot;vertical-align: inherit;&quot;&gt;Categoría&lt;/font&gt;&lt;/font&gt;" style="rounded=1;whiteSpace=wrap;html=1;" vertex="1" parent="1">
          <mxGeometry x="560" y="280" width="120" height="60" as="geometry" />
        </mxCell>
        <mxCell id="Y_XkogyEwF-Upu59ZAgG-63" style="edgeStyle=orthogonalEdgeStyle;rounded=0;orthogonalLoop=1;jettySize=auto;html=1;exitX=0;exitY=0.5;exitDx=0;exitDy=0;entryX=1;entryY=0.5;entryDx=0;entryDy=0;" edge="1" parent="1" source="Y_XkogyEwF-Upu59ZAgG-4" target="Y_XkogyEwF-Upu59ZAgG-41">
          <mxGeometry relative="1" as="geometry" />
        </mxCell>
        <mxCell id="Y_XkogyEwF-Upu59ZAgG-64" style="edgeStyle=orthogonalEdgeStyle;rounded=0;orthogonalLoop=1;jettySize=auto;html=1;exitX=0;exitY=1;exitDx=0;exitDy=0;entryX=1;entryY=0.5;entryDx=0;entryDy=0;" edge="1" parent="1" source="Y_XkogyEwF-Upu59ZAgG-4" target="Y_XkogyEwF-Upu59ZAgG-40">
          <mxGeometry relative="1" as="geometry" />
        </mxCell>
        <mxCell id="Y_XkogyEwF-Upu59ZAgG-99" style="edgeStyle=orthogonalEdgeStyle;rounded=0;orthogonalLoop=1;jettySize=auto;html=1;entryX=0.5;entryY=1;entryDx=0;entryDy=0;" edge="1" parent="1" source="Y_XkogyEwF-Upu59ZAgG-4" target="Y_XkogyEwF-Upu59ZAgG-98">
          <mxGeometry relative="1" as="geometry" />
        </mxCell>
        <mxCell id="Y_XkogyEwF-Upu59ZAgG-4" value="&lt;font style=&quot;vertical-align: inherit;&quot;&gt;&lt;font style=&quot;vertical-align: inherit;&quot;&gt;Categoría Auto&lt;/font&gt;&lt;/font&gt;" style="rounded=1;whiteSpace=wrap;html=1;" vertex="1" parent="1">
          <mxGeometry x="100" y="310" width="120" height="60" as="geometry" />
        </mxCell>
        <mxCell id="Y_XkogyEwF-Upu59ZAgG-68" style="edgeStyle=orthogonalEdgeStyle;rounded=0;orthogonalLoop=1;jettySize=auto;html=1;exitX=0;exitY=0.5;exitDx=0;exitDy=0;entryX=1;entryY=0.5;entryDx=0;entryDy=0;" edge="1" parent="1" source="Y_XkogyEwF-Upu59ZAgG-5" target="Y_XkogyEwF-Upu59ZAgG-49">
          <mxGeometry relative="1" as="geometry" />
        </mxCell>
        <mxCell id="Y_XkogyEwF-Upu59ZAgG-69" style="edgeStyle=orthogonalEdgeStyle;rounded=0;orthogonalLoop=1;jettySize=auto;html=1;exitX=0;exitY=0.75;exitDx=0;exitDy=0;" edge="1" parent="1" source="Y_XkogyEwF-Upu59ZAgG-5" target="Y_XkogyEwF-Upu59ZAgG-46">
          <mxGeometry relative="1" as="geometry" />
        </mxCell>
        <mxCell id="Y_XkogyEwF-Upu59ZAgG-70" style="edgeStyle=orthogonalEdgeStyle;rounded=0;orthogonalLoop=1;jettySize=auto;html=1;exitX=0;exitY=1;exitDx=0;exitDy=0;" edge="1" parent="1" source="Y_XkogyEwF-Upu59ZAgG-5" target="Y_XkogyEwF-Upu59ZAgG-48">
          <mxGeometry relative="1" as="geometry" />
        </mxCell>
        <mxCell id="Y_XkogyEwF-Upu59ZAgG-73" style="edgeStyle=orthogonalEdgeStyle;rounded=0;orthogonalLoop=1;jettySize=auto;html=1;exitX=0.25;exitY=1;exitDx=0;exitDy=0;entryX=1;entryY=0.5;entryDx=0;entryDy=0;" edge="1" parent="1" source="Y_XkogyEwF-Upu59ZAgG-5" target="Y_XkogyEwF-Upu59ZAgG-48">
          <mxGeometry relative="1" as="geometry" />
        </mxCell>
        <mxCell id="Y_XkogyEwF-Upu59ZAgG-75" style="edgeStyle=orthogonalEdgeStyle;rounded=0;orthogonalLoop=1;jettySize=auto;html=1;exitX=0.75;exitY=1;exitDx=0;exitDy=0;" edge="1" parent="1" source="Y_XkogyEwF-Upu59ZAgG-5" target="Y_XkogyEwF-Upu59ZAgG-66">
          <mxGeometry relative="1" as="geometry" />
        </mxCell>
        <mxCell id="Y_XkogyEwF-Upu59ZAgG-76" style="edgeStyle=orthogonalEdgeStyle;rounded=0;orthogonalLoop=1;jettySize=auto;html=1;exitX=1;exitY=1;exitDx=0;exitDy=0;" edge="1" parent="1" source="Y_XkogyEwF-Upu59ZAgG-5" target="Y_XkogyEwF-Upu59ZAgG-44">
          <mxGeometry relative="1" as="geometry" />
        </mxCell>
        <mxCell id="Y_XkogyEwF-Upu59ZAgG-105" style="edgeStyle=orthogonalEdgeStyle;rounded=0;orthogonalLoop=1;jettySize=auto;html=1;entryX=0.5;entryY=0;entryDx=0;entryDy=0;" edge="1" parent="1" source="Y_XkogyEwF-Upu59ZAgG-5" target="Y_XkogyEwF-Upu59ZAgG-106">
          <mxGeometry relative="1" as="geometry">
            <mxPoint x="300" y="700" as="targetPoint" />
            <Array as="points">
              <mxPoint x="320" y="540" />
              <mxPoint x="320" y="710" />
            </Array>
          </mxGeometry>
        </mxCell>
        <mxCell id="Y_XkogyEwF-Upu59ZAgG-108" style="edgeStyle=orthogonalEdgeStyle;rounded=0;orthogonalLoop=1;jettySize=auto;html=1;exitX=0.75;exitY=0;exitDx=0;exitDy=0;" edge="1" parent="1" source="Y_XkogyEwF-Upu59ZAgG-5" target="Y_XkogyEwF-Upu59ZAgG-109">
          <mxGeometry relative="1" as="geometry">
            <mxPoint x="520" y="540" as="targetPoint" />
          </mxGeometry>
        </mxCell>
        <mxCell id="Y_XkogyEwF-Upu59ZAgG-5" value="&lt;font style=&quot;vertical-align: inherit;&quot;&gt;&lt;font style=&quot;vertical-align: inherit;&quot;&gt;Alquiler&lt;/font&gt;&lt;/font&gt;" style="rounded=1;whiteSpace=wrap;html=1;" vertex="1" parent="1">
          <mxGeometry x="80" y="510" width="120" height="60" as="geometry" />
        </mxCell>
        <mxCell id="Y_XkogyEwF-Upu59ZAgG-79" style="edgeStyle=orthogonalEdgeStyle;rounded=0;orthogonalLoop=1;jettySize=auto;html=1;exitX=0.5;exitY=0;exitDx=0;exitDy=0;" edge="1" parent="1" source="Y_XkogyEwF-Upu59ZAgG-6" target="Y_XkogyEwF-Upu59ZAgG-52">
          <mxGeometry relative="1" as="geometry" />
        </mxCell>
        <mxCell id="Y_XkogyEwF-Upu59ZAgG-111" style="edgeStyle=orthogonalEdgeStyle;rounded=0;orthogonalLoop=1;jettySize=auto;html=1;exitX=0;exitY=0;exitDx=0;exitDy=0;" edge="1" parent="1" source="Y_XkogyEwF-Upu59ZAgG-6" target="Y_XkogyEwF-Upu59ZAgG-112">
          <mxGeometry relative="1" as="geometry">
            <mxPoint x="270" y="640" as="targetPoint" />
          </mxGeometry>
        </mxCell>
        <mxCell id="Y_XkogyEwF-Upu59ZAgG-6" value="&lt;font style=&quot;vertical-align: inherit;&quot;&gt;&lt;font style=&quot;vertical-align: inherit;&quot;&gt;Estado del alquiler&lt;/font&gt;&lt;/font&gt;" style="rounded=1;whiteSpace=wrap;html=1;" vertex="1" parent="1">
          <mxGeometry x="400" y="710" width="120" height="60" as="geometry" />
        </mxCell>
        <mxCell id="Y_XkogyEwF-Upu59ZAgG-81" style="edgeStyle=orthogonalEdgeStyle;rounded=0;orthogonalLoop=1;jettySize=auto;html=1;exitX=1;exitY=0;exitDx=0;exitDy=0;" edge="1" parent="1" source="Y_XkogyEwF-Upu59ZAgG-7" target="Y_XkogyEwF-Upu59ZAgG-54">
          <mxGeometry relative="1" as="geometry" />
        </mxCell>
        <mxCell id="Y_XkogyEwF-Upu59ZAgG-82" style="edgeStyle=orthogonalEdgeStyle;rounded=0;orthogonalLoop=1;jettySize=auto;html=1;exitX=1;exitY=1;exitDx=0;exitDy=0;entryX=0;entryY=0.5;entryDx=0;entryDy=0;" edge="1" parent="1" source="Y_XkogyEwF-Upu59ZAgG-7" target="Y_XkogyEwF-Upu59ZAgG-53">
          <mxGeometry relative="1" as="geometry" />
        </mxCell>
        <mxCell id="Y_XkogyEwF-Upu59ZAgG-115" style="edgeStyle=orthogonalEdgeStyle;rounded=0;orthogonalLoop=1;jettySize=auto;html=1;entryX=0.5;entryY=0;entryDx=0;entryDy=0;" edge="1" parent="1" source="Y_XkogyEwF-Upu59ZAgG-7" target="Y_XkogyEwF-Upu59ZAgG-114">
          <mxGeometry relative="1" as="geometry" />
        </mxCell>
        <mxCell id="Y_XkogyEwF-Upu59ZAgG-7" value="&lt;font style=&quot;vertical-align: inherit;&quot;&gt;&lt;font style=&quot;vertical-align: inherit;&quot;&gt;Medios de pago&lt;/font&gt;&lt;/font&gt;" style="rounded=1;whiteSpace=wrap;html=1;" vertex="1" parent="1">
          <mxGeometry x="850" y="290" width="120" height="60" as="geometry" />
        </mxCell>
        <mxCell id="Y_XkogyEwF-Upu59ZAgG-83" style="edgeStyle=orthogonalEdgeStyle;rounded=0;orthogonalLoop=1;jettySize=auto;html=1;exitX=1;exitY=0;exitDx=0;exitDy=0;entryX=0;entryY=0.5;entryDx=0;entryDy=0;" edge="1" parent="1" source="Y_XkogyEwF-Upu59ZAgG-8" target="Y_XkogyEwF-Upu59ZAgG-59">
          <mxGeometry relative="1" as="geometry" />
        </mxCell>
        <mxCell id="Y_XkogyEwF-Upu59ZAgG-84" style="edgeStyle=orthogonalEdgeStyle;rounded=0;orthogonalLoop=1;jettySize=auto;html=1;exitX=1;exitY=0.25;exitDx=0;exitDy=0;" edge="1" parent="1" source="Y_XkogyEwF-Upu59ZAgG-8" target="Y_XkogyEwF-Upu59ZAgG-58">
          <mxGeometry relative="1" as="geometry" />
        </mxCell>
        <mxCell id="Y_XkogyEwF-Upu59ZAgG-87" style="edgeStyle=orthogonalEdgeStyle;rounded=0;orthogonalLoop=1;jettySize=auto;html=1;exitX=0.5;exitY=1;exitDx=0;exitDy=0;" edge="1" parent="1" source="Y_XkogyEwF-Upu59ZAgG-8" target="Y_XkogyEwF-Upu59ZAgG-55">
          <mxGeometry relative="1" as="geometry" />
        </mxCell>
        <mxCell id="Y_XkogyEwF-Upu59ZAgG-118" style="edgeStyle=orthogonalEdgeStyle;rounded=0;orthogonalLoop=1;jettySize=auto;html=1;exitX=0;exitY=1;exitDx=0;exitDy=0;entryX=1;entryY=0.5;entryDx=0;entryDy=0;" edge="1" parent="1" source="Y_XkogyEwF-Upu59ZAgG-8" target="Y_XkogyEwF-Upu59ZAgG-117">
          <mxGeometry relative="1" as="geometry" />
        </mxCell>
        <mxCell id="Y_XkogyEwF-Upu59ZAgG-8" value="&lt;font style=&quot;vertical-align: inherit;&quot;&gt;&lt;font style=&quot;vertical-align: inherit;&quot;&gt;Pago&lt;/font&gt;&lt;/font&gt;" style="rounded=1;whiteSpace=wrap;html=1;" vertex="1" parent="1">
          <mxGeometry x="690" y="530" width="120" height="60" as="geometry" />
        </mxCell>
        <mxCell id="Y_XkogyEwF-Upu59ZAgG-9" value="&lt;font style=&quot;vertical-align: inherit;&quot;&gt;&lt;font style=&quot;vertical-align: inherit;&quot;&gt;direccion&lt;/font&gt;&lt;/font&gt;" style="ellipse;whiteSpace=wrap;html=1;" vertex="1" parent="1">
          <mxGeometry x="30" y="50" width="50" height="40" as="geometry" />
        </mxCell>
        <mxCell id="Y_XkogyEwF-Upu59ZAgG-10" value="&lt;font style=&quot;vertical-align: inherit;&quot;&gt;&lt;font style=&quot;vertical-align: inherit;&quot;&gt;teléfono&lt;/font&gt;&lt;/font&gt;" style="ellipse;whiteSpace=wrap;html=1;" vertex="1" parent="1">
          <mxGeometry x="20" y="100" width="60" height="40" as="geometry" />
        </mxCell>
        <mxCell id="Y_XkogyEwF-Upu59ZAgG-11" value="&lt;font style=&quot;vertical-align: inherit;&quot;&gt;&lt;font style=&quot;vertical-align: inherit;&quot;&gt;correo electronico&lt;/font&gt;&lt;/font&gt;" style="ellipse;whiteSpace=wrap;html=1;" vertex="1" parent="1">
          <mxGeometry x="30" y="160" width="70" height="50" as="geometry" />
        </mxCell>
        <mxCell id="Y_XkogyEwF-Upu59ZAgG-12" value="&lt;font style=&quot;vertical-align: inherit;&quot;&gt;&lt;font style=&quot;vertical-align: inherit;&quot;&gt;Historial&lt;/font&gt;&lt;/font&gt;" style="ellipse;whiteSpace=wrap;html=1;" vertex="1" parent="1">
          <mxGeometry x="170" y="180" width="60" height="40" as="geometry" />
        </mxCell>
        <mxCell id="Y_XkogyEwF-Upu59ZAgG-13" value="&lt;font style=&quot;vertical-align: inherit;&quot;&gt;&lt;font style=&quot;vertical-align: inherit;&quot;&gt;id&lt;/font&gt;&lt;/font&gt;" style="ellipse;whiteSpace=wrap;html=1;" vertex="1" parent="1">
          <mxGeometry x="130" y="-10" width="50" height="40" as="geometry" />
        </mxCell>
        <mxCell id="Y_XkogyEwF-Upu59ZAgG-14" value="&lt;font style=&quot;vertical-align: inherit;&quot;&gt;&lt;font style=&quot;vertical-align: inherit;&quot;&gt;nombre&amp;nbsp;&lt;/font&gt;&lt;/font&gt;" style="ellipse;whiteSpace=wrap;html=1;" vertex="1" parent="1">
          <mxGeometry x="30" width="50" height="40" as="geometry" />
        </mxCell>
        <mxCell id="Y_XkogyEwF-Upu59ZAgG-23" style="edgeStyle=orthogonalEdgeStyle;rounded=0;orthogonalLoop=1;jettySize=auto;html=1;entryX=0.333;entryY=0;entryDx=0;entryDy=0;entryPerimeter=0;" edge="1" parent="1" source="Y_XkogyEwF-Upu59ZAgG-1" target="Y_XkogyEwF-Upu59ZAgG-12">
          <mxGeometry relative="1" as="geometry" />
        </mxCell>
        <mxCell id="Y_XkogyEwF-Upu59ZAgG-25" style="edgeStyle=orthogonalEdgeStyle;rounded=0;orthogonalLoop=1;jettySize=auto;html=1;exitX=0;exitY=1;exitDx=0;exitDy=0;entryX=0.98;entryY=0.68;entryDx=0;entryDy=0;entryPerimeter=0;" edge="1" parent="1" source="Y_XkogyEwF-Upu59ZAgG-1" target="Y_XkogyEwF-Upu59ZAgG-10">
          <mxGeometry relative="1" as="geometry" />
        </mxCell>
        <mxCell id="Y_XkogyEwF-Upu59ZAgG-28" style="edgeStyle=orthogonalEdgeStyle;rounded=0;orthogonalLoop=1;jettySize=auto;html=1;exitX=0;exitY=0;exitDx=0;exitDy=0;entryX=1.04;entryY=0.7;entryDx=0;entryDy=0;entryPerimeter=0;" edge="1" parent="1" source="Y_XkogyEwF-Upu59ZAgG-1" target="Y_XkogyEwF-Upu59ZAgG-14">
          <mxGeometry relative="1" as="geometry" />
        </mxCell>
        <mxCell id="Y_XkogyEwF-Upu59ZAgG-29" value="&lt;font style=&quot;vertical-align: inherit;&quot;&gt;&lt;font style=&quot;vertical-align: inherit;&quot;&gt;placa&lt;/font&gt;&lt;/font&gt;" style="ellipse;whiteSpace=wrap;html=1;" vertex="1" parent="1">
          <mxGeometry x="340" y="40" width="60" height="30" as="geometry" />
        </mxCell>
        <mxCell id="Y_XkogyEwF-Upu59ZAgG-30" value="&lt;font style=&quot;vertical-align: inherit;&quot;&gt;&lt;font style=&quot;vertical-align: inherit;&quot;&gt;año&lt;/font&gt;&lt;/font&gt;" style="ellipse;whiteSpace=wrap;html=1;" vertex="1" parent="1">
          <mxGeometry x="550" y="40" width="70" height="40" as="geometry" />
        </mxCell>
        <mxCell id="Y_XkogyEwF-Upu59ZAgG-31" value="&lt;font style=&quot;vertical-align: inherit;&quot;&gt;&lt;font style=&quot;vertical-align: inherit;&quot;&gt;modelo&lt;/font&gt;&lt;/font&gt;" style="ellipse;whiteSpace=wrap;html=1;" vertex="1" parent="1">
          <mxGeometry x="414" y="40" width="60" height="30" as="geometry" />
        </mxCell>
        <mxCell id="Y_XkogyEwF-Upu59ZAgG-32" value="&lt;font style=&quot;vertical-align: inherit;&quot;&gt;&lt;font style=&quot;vertical-align: inherit;&quot;&gt;marca&lt;/font&gt;&lt;/font&gt;" style="ellipse;whiteSpace=wrap;html=1;" vertex="1" parent="1">
          <mxGeometry x="480" y="40" width="60" height="30" as="geometry" />
        </mxCell>
        <mxCell id="Y_XkogyEwF-Upu59ZAgG-34" style="edgeStyle=orthogonalEdgeStyle;rounded=0;orthogonalLoop=1;jettySize=auto;html=1;exitX=0;exitY=0;exitDx=0;exitDy=0;entryX=0.36;entryY=1.093;entryDx=0;entryDy=0;entryPerimeter=0;" edge="1" parent="1" source="Y_XkogyEwF-Upu59ZAgG-2" target="Y_XkogyEwF-Upu59ZAgG-31">
          <mxGeometry relative="1" as="geometry" />
        </mxCell>
        <mxCell id="Y_XkogyEwF-Upu59ZAgG-37" value="&lt;font style=&quot;vertical-align: inherit;&quot;&gt;&lt;font style=&quot;vertical-align: inherit;&quot;&gt;nombre de la categoria&lt;/font&gt;&lt;/font&gt;" style="ellipse;whiteSpace=wrap;html=1;" vertex="1" parent="1">
          <mxGeometry x="10" y="230" width="80" height="70" as="geometry" />
        </mxCell>
        <mxCell id="Y_XkogyEwF-Upu59ZAgG-38" value="&lt;font style=&quot;vertical-align: inherit;&quot;&gt;&lt;font style=&quot;vertical-align: inherit;&quot;&gt;estado de disponibilidad&lt;/font&gt;&lt;/font&gt;" style="ellipse;whiteSpace=wrap;html=1;" vertex="1" parent="1">
          <mxGeometry x="595" y="430" width="85" height="50" as="geometry" />
        </mxCell>
        <mxCell id="Y_XkogyEwF-Upu59ZAgG-39" value="&lt;font style=&quot;vertical-align: inherit;&quot;&gt;&lt;font style=&quot;vertical-align: inherit;&quot;&gt;costo del dia&lt;/font&gt;&lt;/font&gt;" style="ellipse;whiteSpace=wrap;html=1;" vertex="1" parent="1">
          <mxGeometry x="610" y="210" width="80" height="30" as="geometry" />
        </mxCell>
        <mxCell id="Y_XkogyEwF-Upu59ZAgG-40" value="tarifas" style="ellipse;whiteSpace=wrap;html=1;" vertex="1" parent="1">
          <mxGeometry y="380" width="80" height="50" as="geometry" />
        </mxCell>
        <mxCell id="Y_XkogyEwF-Upu59ZAgG-41" value="&lt;font style=&quot;vertical-align: inherit;&quot;&gt;&lt;font style=&quot;vertical-align: inherit;&quot;&gt;descripcion&lt;/font&gt;&lt;/font&gt;" style="ellipse;whiteSpace=wrap;html=1;" vertex="1" parent="1">
          <mxGeometry y="310" width="80" height="50" as="geometry" />
        </mxCell>
        <mxCell id="Y_XkogyEwF-Upu59ZAgG-42" value="&lt;font style=&quot;vertical-align: inherit;&quot;&gt;&lt;font style=&quot;vertical-align: inherit;&quot;&gt;costo total&lt;/font&gt;&lt;/font&gt;" style="ellipse;whiteSpace=wrap;html=1;" vertex="1" parent="1">
          <mxGeometry x="-280" y="430" width="120" height="80" as="geometry" />
        </mxCell>
        <mxCell id="Y_XkogyEwF-Upu59ZAgG-44" value="&lt;font style=&quot;vertical-align: inherit;&quot;&gt;&lt;font style=&quot;vertical-align: inherit;&quot;&gt;estadode alquier&lt;/font&gt;&lt;/font&gt;" style="ellipse;whiteSpace=wrap;html=1;" vertex="1" parent="1">
          <mxGeometry x="90" y="760" width="120" height="80" as="geometry" />
        </mxCell>
        <mxCell id="Y_XkogyEwF-Upu59ZAgG-45" value="&lt;font style=&quot;vertical-align: inherit;&quot;&gt;&lt;font style=&quot;vertical-align: inherit;&quot;&gt;auto alquilado&lt;/font&gt;&lt;/font&gt;" style="ellipse;whiteSpace=wrap;html=1;" vertex="1" parent="1">
          <mxGeometry x="-180" y="740" width="120" height="80" as="geometry" />
        </mxCell>
        <mxCell id="Y_XkogyEwF-Upu59ZAgG-46" value="&lt;font style=&quot;vertical-align: inherit;&quot;&gt;&lt;font style=&quot;vertical-align: inherit;&quot;&gt;fecha final&lt;/font&gt;&lt;/font&gt;" style="ellipse;whiteSpace=wrap;html=1;" vertex="1" parent="1">
          <mxGeometry x="-300" y="550" width="120" height="80" as="geometry" />
        </mxCell>
        <mxCell id="Y_XkogyEwF-Upu59ZAgG-47" value="&lt;font style=&quot;vertical-align: inherit;&quot;&gt;&lt;font style=&quot;vertical-align: inherit;&quot;&gt;numero de alquiler&lt;/font&gt;&lt;/font&gt;" style="ellipse;whiteSpace=wrap;html=1;" vertex="1" parent="1">
          <mxGeometry x="-40" y="470" width="100" height="60" as="geometry" />
        </mxCell>
        <mxCell id="Y_XkogyEwF-Upu59ZAgG-48" value="&lt;font style=&quot;vertical-align: inherit;&quot;&gt;&lt;font style=&quot;vertical-align: inherit;&quot;&gt;&lt;font style=&quot;vertical-align: inherit;&quot;&gt;&lt;font style=&quot;vertical-align: inherit;&quot;&gt;&lt;font style=&quot;vertical-align: inherit;&quot;&gt;&lt;font style=&quot;vertical-align: inherit;&quot;&gt;fecha de inicio&lt;/font&gt;&lt;/font&gt;&lt;/font&gt;&lt;/font&gt;&lt;/font&gt;&lt;/font&gt;" style="ellipse;whiteSpace=wrap;html=1;" vertex="1" parent="1">
          <mxGeometry x="-250" y="650" width="120" height="80" as="geometry" />
        </mxCell>
        <mxCell id="Y_XkogyEwF-Upu59ZAgG-49" value="&lt;font style=&quot;vertical-align: inherit;&quot;&gt;&lt;font style=&quot;vertical-align: inherit;&quot;&gt;dias rentados&lt;/font&gt;&lt;/font&gt;" style="ellipse;whiteSpace=wrap;html=1;" vertex="1" parent="1">
          <mxGeometry x="-180" y="500" width="120" height="80" as="geometry" />
        </mxCell>
        <mxCell id="Y_XkogyEwF-Upu59ZAgG-50" style="edgeStyle=orthogonalEdgeStyle;rounded=0;orthogonalLoop=1;jettySize=auto;html=1;exitX=0.5;exitY=1;exitDx=0;exitDy=0;" edge="1" parent="1" source="Y_XkogyEwF-Upu59ZAgG-48" target="Y_XkogyEwF-Upu59ZAgG-48">
          <mxGeometry relative="1" as="geometry" />
        </mxCell>
        <mxCell id="Y_XkogyEwF-Upu59ZAgG-51" value="&lt;font style=&quot;vertical-align: inherit;&quot;&gt;&lt;font style=&quot;vertical-align: inherit;&quot;&gt;tipo de estado&lt;/font&gt;&lt;/font&gt;" style="ellipse;whiteSpace=wrap;html=1;" vertex="1" parent="1">
          <mxGeometry x="400" y="840" width="100" height="50" as="geometry" />
        </mxCell>
        <mxCell id="Y_XkogyEwF-Upu59ZAgG-52" value="&lt;font style=&quot;vertical-align: inherit;&quot;&gt;&lt;font style=&quot;vertical-align: inherit;&quot;&gt;descriptpcion&lt;/font&gt;&lt;/font&gt;" style="ellipse;whiteSpace=wrap;html=1;" vertex="1" parent="1">
          <mxGeometry x="400" y="590" width="100" height="40" as="geometry" />
        </mxCell>
        <mxCell id="Y_XkogyEwF-Upu59ZAgG-53" value="&lt;font style=&quot;vertical-align: inherit;&quot;&gt;&lt;font style=&quot;vertical-align: inherit;&quot;&gt;descripcion&lt;/font&gt;&lt;/font&gt;" style="ellipse;whiteSpace=wrap;html=1;" vertex="1" parent="1">
          <mxGeometry x="1010" y="345" width="120" height="80" as="geometry" />
        </mxCell>
        <mxCell id="Y_XkogyEwF-Upu59ZAgG-54" value="&lt;font style=&quot;vertical-align: inherit;&quot;&gt;&lt;font style=&quot;vertical-align: inherit;&quot;&gt;tipo de pago&lt;/font&gt;&lt;/font&gt;" style="ellipse;whiteSpace=wrap;html=1;" vertex="1" parent="1">
          <mxGeometry x="990" y="235" width="120" height="80" as="geometry" />
        </mxCell>
        <mxCell id="Y_XkogyEwF-Upu59ZAgG-55" value="&lt;font style=&quot;vertical-align: inherit;&quot;&gt;&lt;font style=&quot;vertical-align: inherit;&quot;&gt;fecha de pago&lt;/font&gt;&lt;/font&gt;" style="ellipse;whiteSpace=wrap;html=1;" vertex="1" parent="1">
          <mxGeometry x="710" y="670" width="100" height="40" as="geometry" />
        </mxCell>
        <mxCell id="Y_XkogyEwF-Upu59ZAgG-56" value="&lt;font style=&quot;vertical-align: inherit;&quot;&gt;&lt;font style=&quot;vertical-align: inherit;&quot;&gt;medio de pago&lt;/font&gt;&lt;/font&gt;" style="ellipse;whiteSpace=wrap;html=1;" vertex="1" parent="1">
          <mxGeometry x="805" y="640" width="110" height="40" as="geometry" />
        </mxCell>
        <mxCell id="Y_XkogyEwF-Upu59ZAgG-57" value="&lt;font style=&quot;vertical-align: inherit;&quot;&gt;&lt;font style=&quot;vertical-align: inherit;&quot;&gt;&lt;font style=&quot;vertical-align: inherit;&quot;&gt;&lt;font style=&quot;vertical-align: inherit;&quot;&gt;moto&lt;/font&gt;&lt;/font&gt;&lt;/font&gt;&lt;/font&gt;&lt;span style=&quot;background-color: transparent; color: light-dark(rgb(0, 0, 0), rgb(255, 255, 255));&quot;&gt;&lt;font style=&quot;vertical-align: inherit;&quot;&gt;&lt;font style=&quot;vertical-align: inherit;&quot;&gt;&amp;nbsp;pago&lt;/font&gt;&lt;/font&gt;&lt;/span&gt;" style="ellipse;whiteSpace=wrap;html=1;" vertex="1" parent="1">
          <mxGeometry x="850" y="580" width="110" height="40" as="geometry" />
        </mxCell>
        <mxCell id="Y_XkogyEwF-Upu59ZAgG-58" value="&lt;font style=&quot;vertical-align: inherit;&quot;&gt;&lt;font style=&quot;vertical-align: inherit;&quot;&gt;&lt;font style=&quot;vertical-align: inherit;&quot;&gt;&lt;font style=&quot;vertical-align: inherit;&quot;&gt;Alquiler asociado&lt;/font&gt;&lt;/font&gt;&lt;/font&gt;&lt;/font&gt;" style="ellipse;whiteSpace=wrap;html=1;" vertex="1" parent="1">
          <mxGeometry x="850" y="515" width="120" height="50" as="geometry" />
        </mxCell>
        <mxCell id="Y_XkogyEwF-Upu59ZAgG-59" value="&lt;font style=&quot;vertical-align: inherit;&quot;&gt;&lt;font style=&quot;vertical-align: inherit;&quot;&gt;numero de pago&lt;/font&gt;&lt;/font&gt;" style="ellipse;whiteSpace=wrap;html=1;" vertex="1" parent="1">
          <mxGeometry x="827" y="460" width="120" height="40" as="geometry" />
        </mxCell>
        <mxCell id="Y_XkogyEwF-Upu59ZAgG-62" style="edgeStyle=orthogonalEdgeStyle;rounded=0;orthogonalLoop=1;jettySize=auto;html=1;exitX=0.25;exitY=0;exitDx=0;exitDy=0;entryX=0.993;entryY=0.703;entryDx=0;entryDy=0;entryPerimeter=0;" edge="1" parent="1" source="Y_XkogyEwF-Upu59ZAgG-4" target="Y_XkogyEwF-Upu59ZAgG-37">
          <mxGeometry relative="1" as="geometry" />
        </mxCell>
        <mxCell id="Y_XkogyEwF-Upu59ZAgG-66" value="&lt;font style=&quot;vertical-align: inherit;&quot;&gt;&lt;font style=&quot;vertical-align: inherit;&quot;&gt;cliente asociado&lt;/font&gt;&lt;/font&gt;" style="ellipse;whiteSpace=wrap;html=1;" vertex="1" parent="1">
          <mxGeometry x="-40" y="760" width="120" height="80" as="geometry" />
        </mxCell>
        <mxCell id="Y_XkogyEwF-Upu59ZAgG-67" style="edgeStyle=orthogonalEdgeStyle;rounded=0;orthogonalLoop=1;jettySize=auto;html=1;exitX=0;exitY=0;exitDx=0;exitDy=0;entryX=0.778;entryY=0.135;entryDx=0;entryDy=0;entryPerimeter=0;" edge="1" parent="1" source="Y_XkogyEwF-Upu59ZAgG-5" target="Y_XkogyEwF-Upu59ZAgG-42">
          <mxGeometry relative="1" as="geometry" />
        </mxCell>
        <mxCell id="Y_XkogyEwF-Upu59ZAgG-71" style="edgeStyle=orthogonalEdgeStyle;rounded=0;orthogonalLoop=1;jettySize=auto;html=1;exitX=0.25;exitY=1;exitDx=0;exitDy=0;entryX=0.338;entryY=1.007;entryDx=0;entryDy=0;entryPerimeter=0;" edge="1" parent="1" source="Y_XkogyEwF-Upu59ZAgG-5" target="Y_XkogyEwF-Upu59ZAgG-5">
          <mxGeometry relative="1" as="geometry" />
        </mxCell>
        <mxCell id="Y_XkogyEwF-Upu59ZAgG-72" style="edgeStyle=orthogonalEdgeStyle;rounded=0;orthogonalLoop=1;jettySize=auto;html=1;exitX=0;exitY=0.25;exitDx=0;exitDy=0;entryX=0.998;entryY=0.647;entryDx=0;entryDy=0;entryPerimeter=0;" edge="1" parent="1" source="Y_XkogyEwF-Upu59ZAgG-5" target="Y_XkogyEwF-Upu59ZAgG-47">
          <mxGeometry relative="1" as="geometry" />
        </mxCell>
        <mxCell id="Y_XkogyEwF-Upu59ZAgG-74" style="edgeStyle=orthogonalEdgeStyle;rounded=0;orthogonalLoop=1;jettySize=auto;html=1;exitX=0.5;exitY=1;exitDx=0;exitDy=0;" edge="1" parent="1" source="Y_XkogyEwF-Upu59ZAgG-5" target="Y_XkogyEwF-Upu59ZAgG-45">
          <mxGeometry relative="1" as="geometry" />
        </mxCell>
        <mxCell id="Y_XkogyEwF-Upu59ZAgG-77" style="edgeStyle=orthogonalEdgeStyle;rounded=0;orthogonalLoop=1;jettySize=auto;html=1;exitX=1;exitY=1;exitDx=0;exitDy=0;entryX=0.045;entryY=0.24;entryDx=0;entryDy=0;entryPerimeter=0;" edge="1" parent="1" source="Y_XkogyEwF-Upu59ZAgG-3" target="Y_XkogyEwF-Upu59ZAgG-38">
          <mxGeometry relative="1" as="geometry" />
        </mxCell>
        <mxCell id="Y_XkogyEwF-Upu59ZAgG-78" style="edgeStyle=orthogonalEdgeStyle;rounded=0;orthogonalLoop=1;jettySize=auto;html=1;exitX=0;exitY=0;exitDx=0;exitDy=0;entryX=0.75;entryY=1;entryDx=0;entryDy=0;entryPerimeter=0;" edge="1" parent="1" source="Y_XkogyEwF-Upu59ZAgG-3" target="Y_XkogyEwF-Upu59ZAgG-39">
          <mxGeometry relative="1" as="geometry" />
        </mxCell>
        <mxCell id="Y_XkogyEwF-Upu59ZAgG-80" style="edgeStyle=orthogonalEdgeStyle;rounded=0;orthogonalLoop=1;jettySize=auto;html=1;exitX=0.5;exitY=1;exitDx=0;exitDy=0;entryX=0.066;entryY=0.288;entryDx=0;entryDy=0;entryPerimeter=0;" edge="1" parent="1" source="Y_XkogyEwF-Upu59ZAgG-6" target="Y_XkogyEwF-Upu59ZAgG-51">
          <mxGeometry relative="1" as="geometry" />
        </mxCell>
        <mxCell id="Y_XkogyEwF-Upu59ZAgG-85" style="edgeStyle=orthogonalEdgeStyle;rounded=0;orthogonalLoop=1;jettySize=auto;html=1;exitX=1;exitY=0.75;exitDx=0;exitDy=0;entryX=0.089;entryY=0.26;entryDx=0;entryDy=0;entryPerimeter=0;" edge="1" parent="1" source="Y_XkogyEwF-Upu59ZAgG-8" target="Y_XkogyEwF-Upu59ZAgG-57">
          <mxGeometry relative="1" as="geometry" />
        </mxCell>
        <mxCell id="Y_XkogyEwF-Upu59ZAgG-86" style="edgeStyle=orthogonalEdgeStyle;rounded=0;orthogonalLoop=1;jettySize=auto;html=1;exitX=1;exitY=1;exitDx=0;exitDy=0;entryX=0.084;entryY=0.2;entryDx=0;entryDy=0;entryPerimeter=0;" edge="1" parent="1" source="Y_XkogyEwF-Upu59ZAgG-8" target="Y_XkogyEwF-Upu59ZAgG-56">
          <mxGeometry relative="1" as="geometry" />
        </mxCell>
        <mxCell id="Y_XkogyEwF-Upu59ZAgG-92" style="edgeStyle=orthogonalEdgeStyle;rounded=0;orthogonalLoop=1;jettySize=auto;html=1;entryX=1;entryY=0.5;entryDx=0;entryDy=0;" edge="1" parent="1" source="Y_XkogyEwF-Upu59ZAgG-89" target="Y_XkogyEwF-Upu59ZAgG-5">
          <mxGeometry relative="1" as="geometry" />
        </mxCell>
        <mxCell id="Y_XkogyEwF-Upu59ZAgG-89" value="&lt;font style=&quot;vertical-align: inherit;&quot;&gt;&lt;font style=&quot;vertical-align: inherit;&quot;&gt;1-n&lt;/font&gt;&lt;/font&gt;" style="rhombus;whiteSpace=wrap;html=1;" vertex="1" parent="1">
          <mxGeometry x="240" y="345" width="80" height="80" as="geometry" />
        </mxCell>
        <mxCell id="Y_XkogyEwF-Upu59ZAgG-91" style="edgeStyle=orthogonalEdgeStyle;rounded=0;orthogonalLoop=1;jettySize=auto;html=1;exitX=1;exitY=0.5;exitDx=0;exitDy=0;entryX=0.5;entryY=0.188;entryDx=0;entryDy=0;entryPerimeter=0;" edge="1" parent="1" source="Y_XkogyEwF-Upu59ZAgG-1" target="Y_XkogyEwF-Upu59ZAgG-89">
          <mxGeometry relative="1" as="geometry" />
        </mxCell>
        <mxCell id="Y_XkogyEwF-Upu59ZAgG-97" style="edgeStyle=orthogonalEdgeStyle;rounded=0;orthogonalLoop=1;jettySize=auto;html=1;entryX=1;entryY=0.75;entryDx=0;entryDy=0;" edge="1" parent="1" source="Y_XkogyEwF-Upu59ZAgG-95" target="Y_XkogyEwF-Upu59ZAgG-5">
          <mxGeometry relative="1" as="geometry" />
        </mxCell>
        <mxCell id="Y_XkogyEwF-Upu59ZAgG-95" value="&lt;font style=&quot;vertical-align: inherit;&quot;&gt;&lt;font style=&quot;vertical-align: inherit;&quot;&gt;n-m&lt;/font&gt;&lt;/font&gt;" style="rhombus;whiteSpace=wrap;html=1;" vertex="1" parent="1">
          <mxGeometry x="390" y="430" width="80" height="80" as="geometry" />
        </mxCell>
        <mxCell id="Y_XkogyEwF-Upu59ZAgG-100" style="edgeStyle=orthogonalEdgeStyle;rounded=0;orthogonalLoop=1;jettySize=auto;html=1;entryX=0.25;entryY=1;entryDx=0;entryDy=0;" edge="1" parent="1" source="Y_XkogyEwF-Upu59ZAgG-98" target="Y_XkogyEwF-Upu59ZAgG-2">
          <mxGeometry relative="1" as="geometry" />
        </mxCell>
        <mxCell id="Y_XkogyEwF-Upu59ZAgG-98" value="&lt;font style=&quot;vertical-align: inherit;&quot;&gt;&lt;font style=&quot;vertical-align: inherit;&quot;&gt;1-n&lt;/font&gt;&lt;/font&gt;" style="rhombus;whiteSpace=wrap;html=1;" vertex="1" parent="1">
          <mxGeometry x="300" y="210" width="80" height="80" as="geometry" />
        </mxCell>
        <mxCell id="Y_XkogyEwF-Upu59ZAgG-101" value="&lt;font style=&quot;vertical-align: inherit;&quot;&gt;&lt;font style=&quot;vertical-align: inherit;&quot;&gt;1-n&lt;/font&gt;&lt;/font&gt;" style="rhombus;whiteSpace=wrap;html=1;" vertex="1" parent="1">
          <mxGeometry x="490" y="310" width="80" height="80" as="geometry" />
        </mxCell>
        <mxCell id="Y_XkogyEwF-Upu59ZAgG-103" style="edgeStyle=orthogonalEdgeStyle;rounded=0;orthogonalLoop=1;jettySize=auto;html=1;exitX=0.5;exitY=0;exitDx=0;exitDy=0;entryX=0.833;entryY=1;entryDx=0;entryDy=0;entryPerimeter=0;" edge="1" parent="1" source="Y_XkogyEwF-Upu59ZAgG-101" target="Y_XkogyEwF-Upu59ZAgG-2">
          <mxGeometry relative="1" as="geometry" />
        </mxCell>
        <mxCell id="Y_XkogyEwF-Upu59ZAgG-107" style="edgeStyle=orthogonalEdgeStyle;rounded=0;orthogonalLoop=1;jettySize=auto;html=1;exitX=0.5;exitY=1;exitDx=0;exitDy=0;entryX=0;entryY=0.75;entryDx=0;entryDy=0;" edge="1" parent="1" source="Y_XkogyEwF-Upu59ZAgG-106" target="Y_XkogyEwF-Upu59ZAgG-6">
          <mxGeometry relative="1" as="geometry" />
        </mxCell>
        <mxCell id="Y_XkogyEwF-Upu59ZAgG-106" value="&lt;font style=&quot;vertical-align: inherit;&quot;&gt;&lt;font style=&quot;vertical-align: inherit;&quot;&gt;1-n&lt;/font&gt;&lt;/font&gt;" style="rhombus;whiteSpace=wrap;html=1;" vertex="1" parent="1">
          <mxGeometry x="260" y="710" width="80" height="80" as="geometry" />
        </mxCell>
        <mxCell id="Y_XkogyEwF-Upu59ZAgG-110" style="edgeStyle=orthogonalEdgeStyle;rounded=0;orthogonalLoop=1;jettySize=auto;html=1;entryX=-0.005;entryY=0.367;entryDx=0;entryDy=0;entryPerimeter=0;" edge="1" parent="1" target="Y_XkogyEwF-Upu59ZAgG-7">
          <mxGeometry relative="1" as="geometry">
            <mxPoint x="537" y="515" as="sourcePoint" />
            <mxPoint x="827" y="295" as="targetPoint" />
            <Array as="points">
              <mxPoint x="537" y="516" />
              <mxPoint x="694" y="516" />
              <mxPoint x="694" y="312" />
            </Array>
          </mxGeometry>
        </mxCell>
        <mxCell id="Y_XkogyEwF-Upu59ZAgG-109" value="&lt;font style=&quot;vertical-align: inherit;&quot;&gt;&lt;font style=&quot;vertical-align: inherit;&quot;&gt;n-m&lt;/font&gt;&lt;/font&gt;" style="rhombus;whiteSpace=wrap;html=1;" vertex="1" parent="1">
          <mxGeometry x="480" y="500" width="80" height="80" as="geometry" />
        </mxCell>
        <mxCell id="Y_XkogyEwF-Upu59ZAgG-112" value="&lt;font style=&quot;vertical-align: inherit;&quot;&gt;&lt;font style=&quot;vertical-align: inherit;&quot;&gt;1-n&lt;/font&gt;&lt;/font&gt;" style="rhombus;whiteSpace=wrap;html=1;" vertex="1" parent="1">
          <mxGeometry x="200" y="650" width="80" height="80" as="geometry" />
        </mxCell>
        <mxCell id="Y_XkogyEwF-Upu59ZAgG-113" style="edgeStyle=orthogonalEdgeStyle;rounded=0;orthogonalLoop=1;jettySize=auto;html=1;entryX=0.858;entryY=0.98;entryDx=0;entryDy=0;entryPerimeter=0;" edge="1" parent="1" source="Y_XkogyEwF-Upu59ZAgG-112" target="Y_XkogyEwF-Upu59ZAgG-5">
          <mxGeometry relative="1" as="geometry" />
        </mxCell>
        <mxCell id="Y_XkogyEwF-Upu59ZAgG-114" value="&lt;font style=&quot;vertical-align: inherit;&quot;&gt;&lt;font style=&quot;vertical-align: inherit;&quot;&gt;1-n&lt;/font&gt;&lt;/font&gt;" style="rhombus;whiteSpace=wrap;html=1;" vertex="1" parent="1">
          <mxGeometry x="740" y="400" width="80" height="80" as="geometry" />
        </mxCell>
        <mxCell id="Y_XkogyEwF-Upu59ZAgG-116" style="edgeStyle=orthogonalEdgeStyle;rounded=0;orthogonalLoop=1;jettySize=auto;html=1;entryX=0.608;entryY=0.047;entryDx=0;entryDy=0;entryPerimeter=0;" edge="1" parent="1" source="Y_XkogyEwF-Upu59ZAgG-114" target="Y_XkogyEwF-Upu59ZAgG-8">
          <mxGeometry relative="1" as="geometry" />
        </mxCell>
        <mxCell id="Y_XkogyEwF-Upu59ZAgG-117" value="&lt;font style=&quot;vertical-align: inherit;&quot;&gt;&lt;font style=&quot;vertical-align: inherit;&quot;&gt;1-n&lt;/font&gt;&lt;/font&gt;" style="rhombus;whiteSpace=wrap;html=1;" vertex="1" parent="1">
          <mxGeometry x="560" y="600" width="80" height="80" as="geometry" />
        </mxCell>
        <mxCell id="Y_XkogyEwF-Upu59ZAgG-119" style="edgeStyle=orthogonalEdgeStyle;rounded=0;orthogonalLoop=1;jettySize=auto;html=1;entryX=0.938;entryY=0.98;entryDx=0;entryDy=0;entryPerimeter=0;" edge="1" parent="1" source="Y_XkogyEwF-Upu59ZAgG-117" target="Y_XkogyEwF-Upu59ZAgG-5">
          <mxGeometry relative="1" as="geometry" />
        </mxCell>
      </root>
    </mxGraphModel>
  </diagram>
</mxfile>
